<svg xmlns="http://www.w3.org/2000/svg" width="347" height="894.797" viewBox="0 0 347 894.797">
  <g id="pessoa" transform="translate(-763.065 -156.95)">
    <ellipse id="Elipse_40" data-name="Elipse 40" cx="86.5" cy="16.5" rx="86.5" ry="16.5" transform="translate(850.065 931.747)"/>
    <path id="Caminho_112" data-name="Caminho 112" d="M192.817,401.469s15.069-4.456,18.3.393-4.407,40-4.407,40l-33.2,2.018,11.588-29.262Z" transform="translate(728.419 -133.932)" fill="#2f2e41"/>
    <path id="Caminho_113" data-name="Caminho 113" d="M113.507,579.347s-30.213,66.329-6.945,64.246,32.3-64.246,32.3-64.246Z" transform="translate(923.896 -23.186)" fill="#f1d6bf"/>
    <path id="Caminho_114" data-name="Caminho 114" d="M258.695,577.411s13.254,71.671-8.816,64.016-15.78-70.154-15.78-70.154Z" transform="translate(581.11 -28.16)" fill="#f1d6bf"/>
    <path id="Caminho_115" data-name="Caminho 115" d="M157.736,395.1s.347,33.338-12.5,35.075,7.293,19.447,7.293,19.447l22.92,4.515,32.992-2.43,14.586-18.753s-25.7-12.155-14.586-50.008Z" transform="translate(769.927 -144.193)" fill="#f1d6bf"/>
    <path id="Caminho_116" data-name="Caminho 116" d="M157.736,395.1s.347,33.338-12.5,35.075,7.293,19.447,7.293,19.447l22.92,4.515,32.992-2.43,14.586-18.753s-25.7-12.155-14.586-50.008Z" transform="translate(769.927 -144.193)" fill="#752121" opacity="0.1"/>
    <path id="Caminho_117" data-name="Caminho 117" d="M134.023,564.974s-16.322,35.075-3.473,145.161c0,0-3.82,38.895-.695,46.188S158.68,862.588,158.68,862.588s32.991,7.293,37.506-14.586c0,0-4.515-31.255-4.167-36.117s-7.293-57.995-7.293-57.995L200.353,651.1,212.16,743.82s0,26.74,3.82,32.644,0,124.672,0,124.672-10.766,18.058,5.556,18.406,30.907-.347,32.3-11.807,2.084-22.92,5.556-29.866,7.987-86.471,6.945-114.253,22.92-170.512,15.28-185.445S134.023,564.974,134.023,564.974Z" transform="translate(734.605 -32.08)" fill="#2f2e41"/>
    <ellipse id="Elipse_39" data-name="Elipse 39" cx="41.673" cy="41.673" rx="41.673" ry="41.673" transform="translate(903.702 180.063)" fill="#f1d6bf"/>
    <path id="Caminho_118" data-name="Caminho 118" d="M256.645,418.821s-25.351,18.753-62.162,3.82c0,0-12.155-5.9-11.113-14.933s-25.351,72.58-25.351,72.58l-26.74,142.035,1.389,57.995s11.807-5.9,48.619,7.293,96.89-14.933,96.89-14.933L276.093,523.7l-2.084-86.819-5.556-19.1S265.675,412.569,256.645,418.821Z" transform="translate(730.403 -129.366)" fill="#f2f2f2"/>
    <path id="Caminho_119" data-name="Caminho 119" d="M297.659,399.9s-6.135-1-12.038,8.38-19.795,15.28-19.795,15.28-33.686,2.084-38.547,20.142-17.017,42.715-22.92,88.208-17.711,118.073-19.447,123.977,2.431,23.962-2.431,29.518,34.38,5.556,34.38,5.556,3.473-28.477,5.9-28.477,1.736,19.1-.695,32.991,17.711,0,17.711,0,15.627-63.551,30.56-120.852,23.614-88.9,20.836-101.751-10.418-49.66-4.862-53.133S297.659,399.9,297.659,399.9Z" transform="translate(628.847 -133.763)" fill="#2f2e41"/>
    <path id="Caminho_120" data-name="Caminho 120" d="M101.33,399.874s9.073,4.938,31.993,21.26,38.547,28.824,38.547,28.824,9.029,6.945,14.586,48.271,18.059,148.287,13.2,161.83-6.6,21.531-4.862,29.518-36.464,7.64-37.158,5.9,1.042-33.338-.695-34.033S145.826,680.2,144.09,696.522s-21.878,29.171-26.393,29.171S89.915,631.582,89.567,567.336s7.64-118.421,13.544-126.061S101.33,399.874,101.33,399.874Z" transform="translate(875.255 -133.763)" fill="#2f2e41"/>
    <path id="Caminho_121" data-name="Caminho 121" d="M205.928,765.924s-2.778-7.64-12.5-5.209-16.322-6.251-16.322-6.251-5.209-.695-1.736,5.9,6.251,11.113,6.251,11.113-20.837,47.577-7.293,59.037,29.171,4.515,29.171,4.515,15.28-10.766,14.586-39.242c0,0,.695-9.029,9.029-23.615s14.586-36.811,4.515-40.979-12.663-4.322-12.663-4.322,4.713,21.555-7.46,29.087Z" transform="translate(709.582 67.71)" fill="#3f3d56"/>
    <path id="Caminho_122" data-name="Caminho 122" d="M184.658,791.445s8.335-15.627-5.556-17.364-28.824-2.778-28.129,4.515S153.4,797,153.4,797l-2.431,7.987s-.695,19.795-3.125,22.226-15.627,23.267,12.5,23.267,36.464-3.125,34.033-9.724-3.125-39.242-3.125-39.242Z" transform="translate(795.444 96.017)" fill="#3f3d56"/>
    <path id="Caminho_123" data-name="Caminho 123" d="M179.792,363.777s-19.447,5.209-29.518,7.293-9.029-3.82-9.029-3.82-13.2,1.736-12.5.347-5.556-8.682,1.736-17.016,5.209-14.586,5.209-14.586h6.251l1.736-2.431H153.4s7.293-2.778,26.393,0,45.146,3.473,47.229,14.933,12.849,25.7,9.029,32.3-25.7,33.686-27.782,45.146-11.813,14.006-11.463,6.83,10.074-32.181,1.739-33.222S175.972,377.32,179.792,363.777Z" transform="translate(778.78 -175.379)" fill="#2f2e41"/>
  </g>
</svg>
