<svg xmlns="http://www.w3.org/2000/svg" xmlns:xlink="http://www.w3.org/1999/xlink" width="45" height="45" viewBox="0 0 45 45">
  <defs>
    <clipPath id="clip-path">
      <rect id="Retângulo_37" data-name="Retângulo 37" width="45" height="45" transform="translate(740 3345)" fill="#fff"/>
    </clipPath>
  </defs>
  <g id="Grupo_de_máscara_6" data-name="Grupo de máscara 6" transform="translate(-740 -3345)" clip-path="url(#clip-path)">
    <g id="dribbble" transform="translate(740 3345)">
      <rect id="Retângulo_45" data-name="Retângulo 45" width="45" height="45" rx="6.75" fill="#303030"/>
      <circle id="Elipse_42" data-name="Elipse 42" cx="16.875" cy="16.875" r="16.875" transform="translate(5.625 5.625)" fill="#fff"/>
      <path id="Caminho_133" data-name="Caminho 133" d="M33.662,13.447a14.326,14.326,0,0,1,3.252,8.965,32.992,32.992,0,0,0-10.02-.527l-1.318-2.812A20.656,20.656,0,0,0,33.662,13.447Zm-1.582-1.67a16.828,16.828,0,0,1-7.559,5.186,77.782,77.782,0,0,0-5.449-8.438A14.44,14.44,0,0,1,32.08,11.777ZM16.348,9.492a90.965,90.965,0,0,1,5.361,8.262A51.451,51.451,0,0,1,8.35,19.512a14.5,14.5,0,0,1,8-10.02ZM8.086,22.061a54.557,54.557,0,0,0,14.766-2.021l1.23,2.461a22.03,22.03,0,0,0-12.3,9.668A14.414,14.414,0,0,1,8.086,22.061Zm5.537,11.865c.264-.527,3.34-6.328,11.426-9.053a56.787,56.787,0,0,1,3.076,10.9A14.38,14.38,0,0,1,13.623,33.926Zm16.875.527A56.72,56.72,0,0,0,27.773,24.17a21.252,21.252,0,0,1,8.965.615,14.326,14.326,0,0,1-6.24,9.668Z" fill="#303030"/>
    </g>
  </g>
</svg>
