<svg xmlns="http://www.w3.org/2000/svg" xmlns:xlink="http://www.w3.org/1999/xlink" width="45" height="45" viewBox="0 0 45 45">
  <defs>
    <clipPath id="clip-path">
      <rect id="Retângulo_39" data-name="Retângulo 39" width="45" height="45" transform="translate(610 3345)" fill="#fff"/>
    </clipPath>
  </defs>
  <g id="Grupo_de_máscara_4" data-name="Grupo de máscara 4" transform="translate(-610 -3345)" clip-path="url(#clip-path)">
    <g id="github" transform="translate(610.174 3345)">
      <rect id="Retângulo_43" data-name="Retângulo 43" width="44.651" height="44.651" rx="6.698" fill="#303030"/>
      <path id="Caminho_129" data-name="Caminho 129" d="M29.215,43.517c1.221,0,1.047,1.483,1.047,1.483H14.39s-.174-1.483,1.047-1.483c1.134,0,1.4-.523,1.4-1.047l-.087-4.36c-6.192,1.4-7.5-2.442-7.5-2.442C8.2,33.052,6.8,32.442,6.8,32.442c-2.093-1.4.087-1.4.087-1.4a4.872,4.872,0,0,1,3.488,2.267c1.919,3.4,5.145,2.442,6.453,1.919a5,5,0,0,1,1.4-3.052C13.256,31.657,8.11,29.738,8.11,21.192a8.835,8.835,0,0,1,2.267-6.017,7.732,7.732,0,0,1,.262-5.843s1.831-.61,6.1,2.267a20.237,20.237,0,0,1,11.163,0c4.273-2.878,6.1-2.267,6.1-2.267a7.732,7.732,0,0,1,.262,5.843,8.835,8.835,0,0,1,2.267,6.017c0,8.547-5.233,10.465-10.2,10.988a5.214,5.214,0,0,1,1.57,4.186l-.087,6.1C27.82,42.994,28.081,43.517,29.215,43.517Z" fill="#fff"/>
    </g>
  </g>
</svg>
