<svg xmlns="http://www.w3.org/2000/svg" xmlns:xlink="http://www.w3.org/1999/xlink" width="45" height="45" viewBox="0 0 45 45">
  <defs>
    <clipPath id="clip-path">
      <rect id="Retângulo_35" data-name="Retângulo 35" width="45" height="45" transform="translate(675 3280)" fill="#fff"/>
    </clipPath>
  </defs>
  <g id="Grupo_de_máscara_2" data-name="Grupo de máscara 2" transform="translate(-675 -3280)" clip-path="url(#clip-path)">
    <g id="twitter" transform="translate(675 3280)">
      <rect id="Retângulo_41" data-name="Retângulo 41" width="45" height="45" rx="6.75" fill="#303030"/>
      <path id="Caminho_126" data-name="Caminho 126" d="M38.408,13.359a6.328,6.328,0,0,1-3.516,1.055A6.328,6.328,0,0,0,37.705,10.9a6.328,6.328,0,0,1-3.955,1.494,6.328,6.328,0,0,0-10.723,5.713,17.578,17.578,0,0,1-12.744-6.5,6.328,6.328,0,0,0,1.934,8.262A6.328,6.328,0,0,1,9.4,19.248a6.328,6.328,0,0,0,4.922,6.064,6.328,6.328,0,0,1-2.812.088A6.328,6.328,0,0,0,17.4,29.795a17.578,17.578,0,0,1-9.229,2.549A17.578,17.578,0,0,0,35.332,16.611a17.578,17.578,0,0,0,3.076-3.252" fill="#fff"/>
    </g>
  </g>
</svg>
