<svg xmlns="http://www.w3.org/2000/svg" xmlns:xlink="http://www.w3.org/1999/xlink" width="45" height="45" viewBox="0 0 45 45">
  <defs>
    <clipPath id="clip-path">
      <rect id="Retângulo_36" data-name="Retângulo 36" width="45" height="45" transform="translate(740 3280)" fill="#fff"/>
    </clipPath>
  </defs>
  <g id="Grupo_de_máscara_3" data-name="Grupo de máscara 3" transform="translate(-740 -3280)" clip-path="url(#clip-path)">
    <g id="whatsapp" transform="translate(740 3280)">
      <rect id="Retângulo_42" data-name="Retângulo 42" width="45" height="45" rx="6.75" fill="#303030"/>
      <path id="Caminho_127" data-name="Caminho 127" d="M27.07,23.994c-.264-.176-.527-.264-.791.088l-1.055,1.406a.654.654,0,0,1-.791.088,10.208,10.208,0,0,1-4.746-4.131.664.664,0,0,1,.264-.7l.791-1.23c.176-.176.088-.352,0-.527l-1.055-2.549c-.264-.7-.527-.615-.791-.615h-.7a1.336,1.336,0,0,0-.879.439c-1.934,1.934-1.143,4.658.264,6.416a13.467,13.467,0,0,0,5.8,5.186c2.813,1.23,3.428,1.055,4.219.879a3.359,3.359,0,0,0,2.373-1.67c.088-.264.527-1.406.176-1.582" fill="#fff"/>
      <path id="Caminho_128" data-name="Caminho 128" d="M23.2,33.75a12.012,12.012,0,0,1-6.328-1.934l-4.307,1.143,1.055-4.219a12.567,12.567,0,0,1-1.758-6.152,11.647,11.647,0,0,1,11.6-11.6A10.992,10.992,0,0,1,34.541,22.148,11.594,11.594,0,0,1,23.2,33.75M9.229,36.3l7.295-2.021a13.887,13.887,0,0,0,20.215-12.3A13.5,13.5,0,0,0,23.2,8.35,13.887,13.887,0,0,0,11.162,29.092" fill="#fff"/>
    </g>
  </g>
</svg>
